<?xml version="1.0" standalone="no"?>
<!DOCTYPE svg PUBLIC "-//W3C//DTD SVG 20010904//EN"
 "http://www.w3.org/TR/2001/REC-SVG-20010904/DTD/svg10.dtd">
<svg version="1.0" xmlns="http://www.w3.org/2000/svg"
 width="1024.000000pt" height="1024.000000pt" viewBox="0 0 1024.000000 1024.000000"
 preserveAspectRatio="xMidYMid meet">

<g transform="translate(0.000000,1024.000000) scale(0.100000,-0.100000)"
fill="#fff" stroke="none">
<path d="M4715 9598 c-3 -7 -4 -696 -2 -1531 2 -1025 -1 -1521 -8 -1526 -5 -5
-35 -16 -65 -26 -30 -10 -88 -33 -129 -52 -40 -18 -77 -33 -82 -33 -5 0 -9
584 -9 1348 l0 1347 -140 0 -140 0 -2 -448 -3 -447 -148 -60 c-265 -107 -430
-192 -604 -308 l-82 -54 -196 193 c-108 107 -202 195 -209 197 -7 1 -172 -158
-366 -354 l-353 -357 29 -24 c26 -21 157 -115 322 -230 34 -24 62 -47 62 -52
0 -4 -36 -52 -80 -107 -43 -54 -85 -110 -92 -124 -7 -14 -16 -27 -20 -30 -19
-15 -150 -245 -213 -375 -74 -151 -162 -375 -186 -472 l-13 -53 -258 0 -258 0
0 -135 0 -135 1169 -2 1168 -3 -39 -89 c-41 -93 -86 -254 -96 -341 -3 -27 -7
-114 -9 -193 -6 -203 25 -363 107 -561 16 -41 30 -78 30 -82 0 -5 -508 -8
-1165 -7 l-1166 3 3 -130 3 -130 259 -5 258 -5 38 -105 c72 -202 220 -520 242
-520 4 0 7 -3 6 -7 -4 -14 52 -113 63 -113 5 0 7 -4 4 -10 -3 -5 -1 -10 4 -10
6 0 10 -4 8 -8 -3 -12 93 -162 104 -162 5 0 8 -4 6 -8 -2 -9 98 -158 113 -167
6 -3 10 -10 10 -15 0 -5 -90 -77 -200 -160 -110 -83 -200 -155 -200 -160 0 -6
151 -163 336 -350 185 -187 342 -347 349 -356 6 -9 17 -15 23 -13 6 2 60 51
119 109 59 58 149 145 200 194 l92 88 33 -25 c109 -82 436 -247 678 -341 l115
-45 3 -455 2 -456 79 0 c43 0 106 3 140 6 l61 7 0 408 c0 383 1 409 18 408 9
0 74 -10 144 -22 l127 -22 3 -617 c2 -394 7 -620 13 -626 6 -5 188 -12 407
-16 l398 -6 2 1532 3 1531 80 27 c44 15 106 39 139 54 32 14 60 26 62 26 2 0
4 -605 4 -1345 l0 -1346 140 2 140 1 2 451 3 452 55 19 c30 11 58 24 61 29 3
5 10 8 15 7 16 -3 84 23 84 32 0 5 5 6 10 3 6 -3 10 -1 10 6 0 7 3 9 6 6 4 -4
19 0 33 7 14 8 55 26 91 41 87 37 308 157 399 217 l73 49 200 -198 199 -198
262 265 c145 146 307 311 361 366 l98 102 -99 72 c-244 180 -303 226 -303 239
0 7 22 41 49 75 163 206 360 564 480 876 29 74 56 145 61 158 l10 22 260 0
260 0 0 130 0 130 -1171 0 c-933 0 -1170 3 -1166 13 184 410 192 811 23 1211
-9 21 -16 42 -16 47 0 5 503 9 1165 9 l1165 0 0 135 0 135 -264 0 -263 0 -7
30 c-18 90 -119 348 -206 525 -104 212 -191 352 -308 500 -40 50 -71 96 -69
104 1 8 61 54 132 103 72 49 132 93 133 99 2 5 8 7 13 3 5 -3 12 2 15 10 3 9
11 16 18 16 6 0 27 13 46 29 28 24 32 32 25 49 -6 11 -164 176 -351 367 -299
304 -344 346 -361 337 -10 -6 -101 -94 -201 -196 -100 -102 -185 -186 -188
-186 -4 0 -27 15 -53 33 -153 110 -460 264 -703 353 l-78 29 -2 195 c-2 107
-3 310 -3 450 l0 255 -32 -1 c-18 0 -82 -1 -143 -2 l-110 -2 0 -410 0 -411
-32 6 c-18 3 -82 14 -143 24 l-110 17 -3 632 -2 632 -405 0 c-315 0 -407 -3
-410 -12z m476 -278 l69 0 0 -1500 c0 -843 4 -1500 9 -1500 4 0 46 -7 92 -15
200 -35 373 -121 544 -273 l38 -34 -95 -95 -95 -95 -79 57 c-101 71 -196 118
-304 147 -121 32 -367 32 -483 0 -109 -30 -229 -89 -317 -155 l-75 -57 -97 97
-98 97 28 29 c69 75 290 212 375 232 15 4 27 10 27 14 0 4 6 8 13 8 6 1 53 10
102 22 50 11 102 21 118 21 l27 0 0 1498 c0 824 3 1502 8 1506 4 5 34 5 66 2
32 -3 90 -6 127 -6z m499 -1276 c36 -7 79 -17 95 -22 l30 -8 3 -792 c1 -436 0
-792 -2 -792 -2 0 -59 22 -127 50 -68 27 -132 50 -141 50 -17 0 -18 43 -18
771 l0 770 48 -6 c26 -4 76 -13 112 -21z m-1550 -999 c0 -836 -1 -885 -17
-885 -10 0 -114 94 -232 208 l-215 208 55 49 c30 27 87 83 126 125 l73 75 65
-66 65 -67 0 170 0 170 -280 275 c-154 151 -280 279 -280 284 0 14 148 107
275 175 61 32 113 63 117 68 4 6 8 8 8 5 0 -4 51 15 113 41 61 26 115 48 120
49 4 1 7 -397 7 -884z m2058 849 c169 -67 514 -257 539 -297 3 -5 -121 -136
-276 -291 l-281 -281 0 -170 0 -170 64 70 64 70 74 -72 c40 -39 97 -94 126
-123 29 -28 52 -54 50 -58 -11 -23 -417 -412 -430 -412 -9 0 -18 11 -21 26 -9
48 6 1734 15 1734 5 0 40 -12 76 -26z m-3250 -366 c-73 -70 -135 -127 -138
-127 -3 -1 -57 51 -120 114 l-115 115 129 129 129 129 124 -116 123 -117 -132
-127z m4598 -14 l-115 -119 -131 130 c-71 71 -129 134 -129 140 1 5 53 59 116
119 l114 110 131 -131 130 -130 -116 -119z m-3909 -652 l-127 -127 -240 240
-240 240 52 50 c29 28 89 83 133 123 l80 72 235 -235 235 -235 -128 -128z
m3439 486 c64 -62 120 -114 125 -116 5 -2 9 -7 9 -12 0 -5 -106 -116 -235
-247 l-234 -238 -68 66 c-37 36 -97 93 -133 127 l-65 62 235 234 c129 129 238
234 242 235 4 1 59 -50 124 -111z m467 -498 c126 -165 225 -337 315 -550 46
-110 104 -271 99 -276 -2 -2 -364 -3 -804 -2 l-801 3 194 188 194 188 52 -55
c29 -30 101 -100 161 -155 l107 -101 160 0 c87 0 161 3 163 8 2 4 -32 40 -77
81 -45 41 -152 143 -238 228 l-157 155 142 136 c78 75 187 180 242 234 l100
97 38 -42 c20 -23 70 -85 110 -137z m-4533 23 c85 -81 192 -184 238 -228 l83
-81 -240 -237 -240 -237 170 0 169 0 161 156 161 157 126 -125 c70 -68 159
-154 197 -191 l70 -67 -812 0 -811 0 24 78 c58 191 183 446 313 642 87 131
206 280 224 280 7 0 82 -66 167 -147z m1244 -1162 l88 -88 -45 -94 c-64 -133
-90 -253 -91 -409 0 -163 22 -259 97 -423 22 -48 38 -88 36 -90 -3 -1 -44 -40
-91 -86 -74 -72 -89 -82 -102 -72 -30 25 -85 118 -119 202 -135 324 -121 719
33 1007 41 75 87 142 99 142 3 0 46 -40 95 -89z m1876 47 c79 -108 148 -295
171 -465 14 -108 7 -320 -15 -423 -35 -159 -108 -338 -171 -414 l-24 -30 -96
95 -95 94 45 90 c72 142 88 220 89 415 1 194 -17 278 -88 420 l-43 85 91 87
c50 48 94 87 98 88 3 0 20 -19 38 -42z m-1142 -260 l-3 -253 -249 -3 -248 -2
7 27 c41 166 159 332 293 411 46 26 164 71 190 72 10 0 12 -54 10 -252z m343
235 c184 -59 359 -236 404 -411 8 -31 15 -62 15 -69 0 -10 -52 -13 -245 -13
l-245 0 0 255 c0 141 4 255 9 255 5 0 33 -8 62 -17z m-341 -992 c0 -132 -4
-242 -9 -245 -14 -9 -112 24 -177 60 -143 79 -273 248 -299 388 l-7 36 246 0
246 0 0 -239z m760 232 c0 -5 -9 -37 -20 -72 -49 -154 -166 -290 -310 -359
-47 -22 -102 -44 -122 -47 l-38 -7 0 246 0 246 245 0 c135 0 245 -3 245 -7z
m-1214 -564 c59 -65 229 -158 352 -191 114 -31 355 -31 465 0 43 12 93 28 110
36 18 7 35 14 40 14 27 5 114 59 172 107 l69 56 99 -99 100 -100 -52 -48
c-139 -130 -361 -237 -550 -264 l-81 -12 -2 -1497 -3 -1496 -130 0 -130 0 -3
1497 -2 1496 -73 12 c-202 34 -411 134 -552 264 l-60 55 95 95 c52 53 100 96
106 96 6 0 19 -9 30 -21z m-633 -205 c3 -3 -81 -91 -186 -194 -106 -104 -195
-191 -199 -195 -4 -4 -82 65 -174 154 l-168 161 -165 0 -166 -1 248 -242 247
-242 -40 -42 c-22 -23 -40 -41 -40 -40 0 1 -86 -83 -191 -186 -106 -103 -195
-184 -199 -180 -182 211 -295 381 -410 618 -72 146 -170 373 -170 391 0 7
1606 4 1613 -2z m4047 -3 c0 -13 -82 -212 -129 -313 -95 -208 -242 -445 -370
-598 -39 -47 -75 -86 -80 -88 -5 -2 -47 34 -93 80 -46 46 -147 145 -226 222
-78 76 -142 140 -142 142 0 2 109 111 243 243 l242 240 -168 1 -167 0 -161
-157 c-88 -87 -164 -159 -167 -160 -10 -4 -392 372 -392 385 0 9 200 12 805
12 459 0 805 -4 805 -9z m-3810 -1006 c0 -635 -3 -865 -11 -865 -22 0 -196 74
-321 136 -71 35 -131 64 -134 63 -4 0 -10 3 -13 8 -3 5 -39 30 -78 57 -40 26
-75 51 -78 56 -3 4 120 132 273 283 l277 276 3 158 3 158 -65 -67 c-35 -38
-67 -68 -71 -68 -3 0 -61 54 -128 120 l-122 119 161 158 c221 218 281 273 293
273 8 0 11 -255 11 -865z m2078 778 c152 -146 342 -335 342 -342 0 -3 -53 -59
-118 -124 l-118 -118 -72 70 -72 71 0 -159 0 -159 285 -280 286 -280 -63 -45
c-76 -54 -177 -112 -278 -162 -87 -42 -278 -125 -289 -125 -5 0 -11 46 -15
103 -8 121 4 1637 13 1637 4 0 48 -39 99 -87z m-1578 -258 l76 -28 -1 -748 0
-749 -38 0 c-40 0 -169 24 -224 41 l-33 11 0 777 c0 428 3 780 6 784 4 3 36
-9 73 -27 36 -18 100 -46 141 -61z m-1010 -359 l122 -119 -226 -225 -225 -226
-53 47 c-29 26 -89 80 -133 122 l-80 75 60 57 c33 32 138 133 234 226 96 92
175 166 177 165 1 -2 57 -57 124 -122z m3256 -11 c77 -71 181 -171 233 -221
l95 -92 -127 -122 c-69 -66 -130 -120 -134 -119 -7 2 -161 145 -403 376 l-65
62 125 126 c69 69 128 124 131 122 4 -1 69 -60 145 -132z m-4039 -513 c6 -11
60 -64 120 -119 l109 -100 -121 -126 -120 -127 -129 126 -128 126 118 119 c65
66 123 119 129 119 6 0 15 -8 22 -18z m4692 -96 c62 -62 112 -118 110 -124 -5
-14 -229 -242 -238 -242 -4 0 -60 54 -125 120 l-118 119 123 120 c68 66 126
120 129 121 3 0 56 -51 119 -114z"/>
<path d="M7475 8760 c-51 -20 -90 -93 -79 -144 17 -80 60 -116 138 -116 132 0
177 181 63 250 -33 21 -87 25 -122 10z"/>
<path d="M3199 8746 c-82 -47 -78 -170 7 -211 46 -22 92 -14 126 23 48 50 43
128 -10 175 -27 25 -90 31 -123 13z"/>
<path d="M3554 8746 c-17 -8 -39 -24 -48 -37 -32 -46 -12 -144 33 -169 29 -15
104 -12 129 6 27 19 52 65 52 96 0 36 -37 88 -75 104 -42 17 -51 17 -91 0z"/>
<path d="M6582 8741 c-85 -54 -63 -199 34 -217 20 -4 40 -2 48 5 7 6 16 8 19
4 11 -11 56 38 67 74 34 100 -79 189 -168 134z"/>
<path d="M6933 8740 c-40 -24 -54 -50 -55 -100 -1 -51 24 -88 70 -107 50 -21
107 -2 140 47 41 61 16 136 -55 166 -43 19 -62 18 -100 -6z"/>
<path d="M1818 7042 c-16 -9 -28 -22 -28 -28 0 -7 -5 -14 -10 -16 -19 -6 -15
-81 5 -112 20 -30 69 -56 107 -56 41 0 86 36 99 79 15 50 6 86 -31 122 -23 23
-37 29 -72 29 -24 0 -55 -8 -70 -18z"/>
<path d="M1661 6696 c-32 -18 -50 -53 -51 -99 0 -49 13 -73 50 -92 49 -25 107
-20 141 14 29 29 33 43 29 91 -3 37 -17 59 -53 80 -37 23 -82 25 -116 6z"/>
<path d="M8468 6695 c-85 -47 -73 -179 17 -204 78 -21 145 30 145 111 0 78
-93 132 -162 93z"/>
<path d="M1440 5110 l0 -340 720 0 720 0 0 340 0 340 -720 0 -720 0 0 -340z
m1172 88 c2 -18 1 -71 -2 -118 l-5 -85 -432 -3 -433 -2 0 113 c0 63 3 117 7
120 3 4 199 7 434 7 l428 0 3 -32z"/>
<path d="M3150 5110 l0 -340 130 0 131 0 -2 340 -1 340 -129 0 -129 0 0 -340z"/>
<path d="M6840 5110 l0 -340 131 0 c131 0 131 0 125 23 -3 12 -6 165 -6 340
l0 317 -125 0 -125 0 0 -340z"/>
<path d="M7366 5133 c-3 -175 -5 -327 -3 -338 4 -20 13 -20 715 -23 l712 -2 0
340 0 340 -709 0 -708 0 -7 -317z m1134 -23 l0 -120 -430 0 -430 0 0 120 0
120 430 0 430 0 0 -120z"/>
<path d="M1659 3727 c-38 -25 -63 -83 -53 -123 3 -13 22 -37 40 -54 50 -44
104 -42 150 4 28 28 34 41 34 78 0 52 -21 85 -66 104 -46 19 -66 18 -105 -9z"/>
<path d="M8471 3733 c-44 -22 -73 -82 -60 -127 14 -49 61 -86 110 -86 56 0
109 51 109 104 0 52 -25 95 -65 112 -43 18 -52 17 -94 -3z"/>
<path d="M1855 3402 c-58 -13 -99 -76 -88 -136 8 -39 54 -83 95 -91 50 -9 100
16 121 61 21 42 21 67 3 102 -27 53 -75 76 -131 64z"/>
<path d="M3174 1676 c-29 -29 -34 -41 -34 -81 0 -40 5 -52 34 -81 29 -29 41
-34 81 -34 38 0 52 5 75 28 39 40 48 91 23 139 -23 45 -54 63 -106 63 -31 0
-46 -7 -73 -34z"/>
<path d="M3555 1701 c-35 -15 -57 -49 -62 -93 -9 -81 32 -131 106 -130 50 1
85 23 106 69 21 43 9 96 -29 132 -26 25 -89 36 -121 22z"/>
<path d="M6570 1683 c-33 -30 -47 -82 -36 -128 19 -76 125 -102 184 -47 38 36
48 72 33 123 -23 77 -122 105 -181 52z"/>
</g>
</svg>
